<svg xmlns="http://www.w3.org/2000/svg" viewBox="0 0 100 100" fill="none">
  <g stroke="currentColor" stroke-width="4" stroke-linecap="round" stroke-linejoin="round" fill="none">
    <!-- Top arrow -->
    <path d="M30 25 L50 10 L70 25 M50 10 L50 35"/>
    <path d="M45 30 L50 35 L55 30"/>
    
    <!-- Right arrow -->
    <path d="M75 40 L90 60 L75 80 M90 60 L65 60"/>
    <path d="M70 55 L65 60 L70 65"/>
    
    <!-- Left arrow -->
    <path d="M25 75 L10 55 L25 35 M10 55 L35 55"/>
    <path d="M30 50 L35 55 L30 60"/>
  </g>
  
  <g fill="currentColor" opacity="0.2">
    <!-- Arrow heads -->
    <path d="M45 30 L50 35 L55 30 L50 25 Z"/>
    <path d="M70 55 L65 60 L70 65 L75 60 Z"/>
    <path d="M30 50 L35 55 L30 60 L25 55 Z"/>
  </g>
</svg> 